<?xml version="1.0" encoding="UTF-8" standalone="no"?>
<!-- Generator: Adobe Illustrator 19.2.0, SVG Export Plug-In . SVG Version: 6.00 Build 0)  -->

<svg
   version="1.1"
   id="Layer_1"
   x="0px"
   y="0px"
   viewBox="0 0 368.39999 124.7"
   xml:space="preserve"
   sodipodi:docname="osl-logo-black.svg"
   width="368.39999"
   height="124.7"
   inkscape:version="1.1.2 (0a00cf5, 2022-02-04)"
   xmlns:inkscape="http://www.inkscape.org/namespaces/inkscape"
   xmlns:sodipodi="http://sodipodi.sourceforge.net/DTD/sodipodi-0.dtd"
   xmlns="http://www.w3.org/2000/svg"
   xmlns:svg="http://www.w3.org/2000/svg"><defs
   id="defs956" /><sodipodi:namedview
   id="namedview954"
   pagecolor="#ffffff"
   bordercolor="#666666"
   borderopacity="1.0"
   inkscape:pageshadow="2"
   inkscape:pageopacity="0.0"
   inkscape:pagecheckerboard="0"
   showgrid="false"
   fit-margin-top="0"
   fit-margin-left="0"
   fit-margin-right="0"
   fit-margin-bottom="0"
   inkscape:zoom="1.2233333"
   inkscape:cx="183.92371"
   inkscape:cy="62.53406"
   inkscape:window-width="1846"
   inkscape:window-height="1016"
   inkscape:window-x="74"
   inkscape:window-y="27"
   inkscape:window-maximized="1"
   inkscape:current-layer="Layer_1" />
<style
   type="text/css"
   id="style907">
	.st0{fill:#231F20;}
</style>











<g
   id="g1134"
   transform="translate(-46.1,-88.2)"><path
     class="st0"
     d="m 137.5,117.8 c -18.2,0 -32.9,14.7 -32.9,32.9 0,18.2 14.7,32.9 32.9,32.9 18.2,0 32.9,-14.7 32.9,-32.9 0,-18.2 -14.8,-32.9 -32.9,-32.9 z m 3.3,34 v 9.6 c 0,1.6 -1.3,3 -3,3 -1.6,0 -3,-1.3 -3,-3 v -9.6 c -2.8,-1.2 -4.8,-4 -4.8,-7.2 0,-4.3 3.5,-7.8 7.8,-7.8 4.3,0 7.8,3.5 7.8,7.8 0,3.2 -2,6 -4.8,7.2 z"
     id="path909" /><g
     id="g929">
	<path
   class="st0"
   d="m 139.8,88.3 v 0 h -2 c 0.7,-0.1 1.3,0 2,0 z"
   id="path923" />
	<path
   class="st0"
   d="m 75.5,150.6 c 0,-34.4 27.9,-62.3 62.3,-62.3 h -77 c -8.1,0 -14.7,6.6 -14.7,14.7 v 95.2 c 0,8.1 6.6,14.7 14.7,14.7 h 77 c -34.4,0 -62.3,-27.9 -62.3,-62.3 z"
   id="path925" />
	<path
   class="st0"
   d="m 137.8,212.9 h 2 v 0 c -0.7,-0.1 -1.3,0 -2,0 z"
   id="path927" />
</g><g
     id="g939">
	<path
   class="st0"
   d="m 372.5,135.5 c -3.7,0 -6.6,3 -6.6,6.6 0,3.7 3,6.6 6.6,6.6 h 6.6 v -6.6 c 0,-3.7 -2.9,-6.6 -6.6,-6.6 z"
   id="path931" />
	<path
   class="st0"
   d="m 389.6,152.4 h -6.8 v 35.4 c 1.5,0.1 3.1,0.2 4.6,0.2 h 2.2 z"
   id="path933" />
	<path
   class="st0"
   d="m 406.5,142.1 c 0,-3.7 -3,-6.6 -6.6,-6.6 -3.7,0 -6.6,3 -6.6,6.6 v 6.6 h 6.6 c 3.6,0 6.6,-2.9 6.6,-6.6 z"
   id="path935" />
	<path
   class="st0"
   d="m 399.7,88.2 h -77.8 v 34.2 c 0,33.3 25,60.9 57.2,65 v -35 h -6.6 c -5.7,0 -10.3,-4.6 -10.3,-10.3 0,-5.7 4.6,-10.3 10.3,-10.3 5.7,0 10.3,4.6 10.3,10.3 v 6.6 h 6.8 v -6.6 c 0,-5.7 4.6,-10.3 10.3,-10.3 5.7,0 10.3,4.6 10.3,10.3 0,5.7 -4.6,10.3 -10.3,10.3 h -6.6 V 188 h 21.2 v -85 c 0,-8.2 -6.6,-14.8 -14.8,-14.8 z"
   id="path937" />
</g><path
     class="st0"
     d="M 359.5,212.9 C 320.9,201 292.8,164.9 292.8,122.5 V 88.2 h -56.6 c -8.7,3.9 -14.7,12.6 -14.7,22.7 0,13.7 11.2,24.9 24.9,24.9 29.9,0 54.3,24.4 54.3,54.3 0,8.1 -1.8,15.8 -5,22.7 z"
     id="path941" /><g
     id="g945">
	<path
   class="st0"
   d="m 137.1,88.2 c 0.2,0 0.4,0 0.6,0 z"
   id="path943" />
</g><g
     id="g951">
	<path
   class="st0"
   d="m 193.3,122.3 c -0.8,-3.6 -1.2,-7.4 -1.2,-11.3 0,-8.1 1.8,-15.8 5,-22.7 h -59.3 c 24.2,-0.1 45.2,13.8 55.5,34 z"
   id="path947" />
	<path
   class="st0"
   d="m 271.3,190.2 c 0,-13.7 -11.2,-24.9 -24.9,-24.9 -20.7,0 -38.8,-11.7 -47.9,-28.8 1.1,4.5 1.6,9.3 1.6,14.1 0,33.8 -26.8,61.2 -60.4,62.3 v 0 h 116.9 c 8.7,-3.9 14.7,-12.6 14.7,-22.7 z"
   id="path949" />
</g></g>
</svg>
