<svg xmlns="http://www.w3.org/2000/svg" style="display:none">
  <!-- existing symbols you already use could live here too -->

  <!-- blog -->
  <symbol id="blog" viewBox="0 0 24 24">
    <path d="M14 3H7a2 2 0 0 0-2 2v14a2 2 0 0 0 2 2h10a2 2 0 0 0 2-2V9z" fill="none" stroke="currentColor" stroke-width="2" stroke-linejoin="round"/>
    <path d="M14 3v6h6" fill="none" stroke="currentColor" stroke-width="2" stroke-linejoin="round"/>
    <path d="M9 13h6M9 17h6" fill="none" stroke="currentColor" stroke-width="2" stroke-linecap="round"/>
  </symbol>

  <!-- instagram -->
  <!--
  <symbol id="instagram" viewBox="0 0 24 24">
    <rect x="3" y="3" width="18" height="18" rx="5" ry="5" fill="none" stroke="currentColor" stroke-width="2"/>
    <circle cx="12" cy="12" r="4" fill="none" stroke="currentColor" stroke-width="2"/>
    <circle cx="17.5" cy="6.5" r="1.5" fill="currentColor"/>
  </symbol>
  -->

  <!-- bluesky -->
  <!--
  <symbol id="bluesky" viewBox="0 0 24 24">
    <path d="M12 11.5c2.4-3.4 4.9-5.5 7.3-5.5 1.7 0 2.7 1.3 2.7 2.8 0 3.3-3.6 4.6-6.7 3.7 .2 2.6 1.6 4.8 4.2 6-3.5 .2-6-1.4-7.5-3.4-1.5 2-4 3.6-7.5 3.4 2.6-1.2 4-3.4 4.2-6-3.1 .9-6.7-.4-6.7-3.7 0-1.5 1-2.8 2.7-2.8 2.4 0 4.9 2.1 7.3 5.5z" fill="currentColor"/>
  </symbol>
  -->
</svg>
