<?xml version="1.0" encoding="UTF-8" standalone="no"?>
<!-- Created with Inkscape (http://www.inkscape.org/) -->

<svg
   width="210mm"
   height="297mm"
   viewBox="0 0 210 297"
   version="1.1"
   id="svg5"
   xml:space="preserve"
   inkscape:version="1.2.2 (b0a8486541, 2022-12-01)"
   sodipodi:docname="openverse24.svg"
   xmlns:inkscape="http://www.inkscape.org/namespaces/inkscape"
   xmlns:sodipodi="http://sodipodi.sourceforge.net/DTD/sodipodi-0.dtd"
   xmlns="http://www.w3.org/2000/svg"
   xmlns:svg="http://www.w3.org/2000/svg"><sodipodi:namedview
     id="namedview7"
     pagecolor="#ffffff"
     bordercolor="#666666"
     borderopacity="1.0"
     inkscape:showpageshadow="2"
     inkscape:pageopacity="0.0"
     inkscape:pagecheckerboard="0"
     inkscape:deskcolor="#d1d1d1"
     inkscape:document-units="mm"
     showgrid="false"
     inkscape:zoom="0.74920735"
     inkscape:cx="296.31316"
     inkscape:cy="559.9251"
     inkscape:window-width="1920"
     inkscape:window-height="1022"
     inkscape:window-x="0"
     inkscape:window-y="0"
     inkscape:window-maximized="1"
     inkscape:current-layer="layer1" /><defs
     id="defs2" /><g
     inkscape:label="Layer 1"
     inkscape:groupmode="layer"
     id="layer1"><path
       style="fill:#000000;stroke-width:0.264583"
       d="m 105.51698,228.65366 c -2.35992,-0.61871 -3.41182,-1.15183 -12.469586,-6.31976 -4.037261,-2.30347 -10.793288,-6.12592 -15.013392,-8.49434 -15.369817,-8.6259 -22.162409,-12.45549 -30.25464,-17.05725 -3.252133,-1.84937 -7.538383,-4.26045 -9.524999,-5.35795 -1.986613,-1.09751 -3.731088,-2.08715 -3.876609,-2.19922 -0.145521,-0.11207 -2.467239,-1.42235 -5.159374,-2.91173 -2.692136,-1.48938 -5.4536,-3.11561 -6.13659,-3.61384 -2.447642,-1.78551 -4.589875,-4.97654 -5.38844,-8.02653 -0.414835,-1.58439 -0.452776,-5.25075 -0.481899,-46.56667 l -0.03161,-44.846871 0.586174,-1.863071 c 0.71578,-2.275001 2.241209,-4.695759 3.802856,-6.034881 0.641972,-0.550495 2.774564,-1.899944 4.739095,-2.998771 3.412368,-1.908652 14.328346,-8.078417 20.505207,-11.589649 2.598772,-1.47727 8.790744,-4.96175 19.049999,-10.720229 1.891771,-1.061844 6.832865,-3.858445 10.980208,-6.214668 13.754481,-7.814312 22.635261,-12.7759 25.0594,-14.000386 3.21498,-1.62396 5.15977,-2.098104 8.00351,-1.951265 2.8431,0.146806 4.94748,0.965933 10.29008,4.005392 2.13132,1.212532 7.08982,4.024153 11.01888,6.24805 3.92906,2.223894 10.00505,5.683991 13.50219,7.689101 3.49715,2.00511 7.96199,4.529746 9.92188,5.610301 3.57905,1.973258 16.07545,9.066845 31.34468,17.792816 4.51114,2.578005 8.59428,4.983136 9.07364,5.344737 2.23548,1.686316 3.95058,4.128981 5.01951,7.148842 0.4142,1.170152 0.4562,4.672828 0.53875,44.925352 0.066,32.16082 0.009,44.24843 -0.21819,45.9052 -0.56685,4.14275 -2.96053,8.0399 -6.31797,10.28632 -0.81464,0.54506 -3.0885,1.86761 -5.05303,2.93899 -1.96453,1.07139 -3.9886,2.20724 -4.49792,2.52412 -0.50932,0.31688 -3.00963,1.74281 -5.55625,3.16874 -2.54661,1.42593 -6.83286,3.86597 -9.525,5.42232 -2.69213,1.55635 -7.15698,4.11577 -9.92187,5.68762 -2.7649,1.57184 -7.05115,4.01756 -9.525,5.43492 -2.47386,1.41737 -7.17683,4.09641 -10.45104,5.95342 -3.27422,1.85702 -9.59624,5.49075 -14.04893,8.07497 -9.82017,5.69935 -10.35133,5.97237 -12.87397,6.61756 -2.47977,0.63421 -4.65979,0.63063 -7.10975,-0.0117 z m 6.38369,-9.22207 c 1.01864,-0.55025 7.9838,-4.52088 15.47812,-8.82363 16.71245,-9.59519 16.01949,-9.19879 23.28334,-13.31874 12.15448,-6.89384 21.89008,-12.47852 22.35729,-12.82493 0.14552,-0.1079 0.97895,-0.58788 1.85208,-1.06662 0.87312,-0.47875 3.79016,-2.11432 6.48229,-3.63461 2.69214,-1.52029 5.76917,-3.25558 6.83784,-3.85619 1.50358,-0.84503 2.10201,-1.36239 2.64584,-2.28741 l 0.70278,-1.19538 0.0617,-43.92083 0.0617,-43.920834 -0.72314,-1.3042 c -0.6514,-1.174805 -1.05128,-1.491763 -4.03044,-3.194645 -1.81901,-1.039746 -4.14073,-2.343549 -5.15937,-2.897341 -1.01865,-0.553791 -2.62599,-1.455216 -3.57188,-2.003163 -2.80436,-1.624552 -18.92187,-10.754029 -24.73854,-14.012703 -1.89177,-1.059825 -4.21349,-2.372392 -5.15937,-2.916811 -0.94589,-0.54442 -7.2562,-4.114319 -14.02292,-7.933108 -6.76672,-3.818787 -13.67234,-7.725841 -15.34583,-8.682341 -6.35203,-3.630565 -8.34238,-4.548624 -9.85529,-4.545809 -0.89714,0.0016 -1.85827,0.221451 -2.71242,0.620247 -1.65825,0.774229 -13.407831,7.336094 -27.516668,15.367414 -3.783541,2.153746 -10.510572,5.941936 -14.948957,8.4182 -4.438386,2.476265 -12.653698,7.087775 -18.25625,10.247797 -5.602551,3.160024 -11.853332,6.667168 -13.890624,7.793656 -2.037291,1.126487 -3.965995,2.290532 -4.286012,2.586765 -1.467051,1.358027 -1.402529,-0.769385 -1.402529,46.244586 0,47.60445 -0.09312,44.84913 1.571834,46.50737 0.39802,0.39641 2.439603,1.68465 4.536855,2.86276 2.097251,1.1781 7.801779,4.3732 12.676726,7.10022 4.874948,2.72702 10.828073,6.0638 13.229166,7.41508 2.401094,1.35128 6.865938,3.85977 9.921875,5.57443 3.055937,1.71465 6.746875,3.793 8.202083,4.61855 1.455208,0.82555 3.895989,2.19993 5.423958,3.05418 1.527969,0.85425 7.659687,4.34492 13.626041,7.75704 5.966352,3.41212 11.324172,6.42208 11.906252,6.6888 1.59313,0.72999 2.66907,0.61301 4.7625,-0.5178 z m -4.23333,-17.93282 c -0.43657,-0.23722 -2.52016,-1.3889 -4.63021,-2.55929 -2.11005,-1.17039 -4.312712,-2.3888 -4.894792,-2.70759 -4.17707,-2.28763 -12.54642,-6.9243 -15.742711,-8.72156 -2.110052,-1.18647 -5.324739,-2.97136 -7.14375,-3.96641 -1.81901,-0.99506 -5.450416,-3.00246 -8.069791,-4.46089 -2.619375,-1.45842 -6.19125,-3.44734 -7.9375,-4.4198 -1.74625,-0.97247 -3.710781,-2.06614 -4.365624,-2.43039 -0.654844,-0.36424 -3.095625,-1.70639 -5.423958,-2.98255 -2.328334,-1.27616 -4.501224,-2.56339 -4.828646,-2.86052 l -0.595313,-0.54022 v -9.16138 c 0,-6.77274 0.08278,-9.24416 0.3175,-9.47888 0.23553,-0.23553 2.850917,-0.3175 10.13038,-0.3175 h 9.812879 l 0.440227,2.05052 c 2.200058,10.24754 3.704979,16.96697 3.910997,17.4625 0.355311,0.85462 1.181785,0.76294 4.11055,-0.45598 l 2.526006,-1.0513 5.873126,3.00194 c 3.230218,1.65107 9.147344,4.67232 13.149166,6.71389 4.001822,2.04157 8.867384,4.55707 10.812354,5.58998 1.94497,1.03292 3.61184,1.87812 3.70417,1.87823 0.0923,1.1e-4 0.14054,-1.43559 0.10717,-3.19044 l -0.0607,-3.19064 0.72215,-0.39476 c 0.39718,-0.21711 1.73417,-0.96401 2.9711,-1.65976 3.77073,-2.12099 20.41539,-10.83087 21.882,-11.45049 l 1.37667,-0.58163 2.45972,1.13805 c 5.19045,2.40146 9.96255,4.51281 10.19994,4.51281 0.54194,0 1.06497,-1.01058 1.36938,-2.64584 0.47567,-2.55522 3.44133,-15.87279 3.75611,-16.86718 l 0.27221,-0.8599 9.57063,0.004 c 5.56271,0.002 9.73683,0.10902 9.9675,0.25471 0.60437,0.38171 0.74139,17.76648 0.14718,18.67336 -0.22137,0.33785 -1.44638,1.17872 -2.72223,1.86859 -1.27586,0.68987 -5.11771,2.82465 -8.53745,4.74395 -3.41974,1.91931 -9.07521,5.06918 -12.56771,6.99971 -3.4925,1.93054 -8.61218,4.78783 -11.37708,6.34955 -2.76489,1.56171 -6.93208,3.88715 -9.26042,5.16765 -2.32833,1.28049 -5.9002,3.28412 -7.93749,4.45251 -8.47185,4.85862 -11.15409,6.30278 -11.90625,6.41052 -0.44176,0.0633 -1.14575,-0.0776 -1.5875,-0.31762 z m -7.49288,-12.33979 c 0.0543,-0.38258 0.29728,-0.62553 0.67986,-0.67986 0.76028,-0.10798 0.83658,-1.10608 0.0845,-1.10608 -0.32824,0 -0.54097,-0.21274 -0.59531,-0.59531 -0.11435,-0.80513 -1.111132,-0.81837 -1.225302,-0.0163 -0.0512,0.35961 -0.30082,0.61028 -0.65875,0.66146 -0.80953,0.11576 -0.9149,0.94351 -0.13419,1.05418 0.33593,0.0476 0.72831,0.35446 0.87195,0.68188 0.14365,0.32742 0.40326,0.59532 0.57692,0.59532 0.17365,0 0.353772,-0.2679 0.400282,-0.59532 z m 63.30765,-26.72292 c 0.0568,-0.1819 0.17937,-0.78682 0.27227,-1.34425 0.24135,-1.44834 1.53674,-2.75036 3.31191,-3.32887 1.83515,-0.59806 2.01835,-1.33775 0.41389,-1.67111 -2.02191,-0.42009 -3.83197,-2.53877 -3.84766,-4.50369 -0.004,-0.54692 -0.13596,-0.7276 -0.52994,-0.7276 -0.3604,0 -0.5692,0.22729 -0.66843,0.7276 -0.22526,1.13572 -1.29921,3.03549 -2.02033,3.57389 -0.35979,0.26862 -1.12353,0.649 -1.6972,0.84529 -0.67527,0.23105 -1.07124,0.54043 -1.12301,0.87745 -0.0647,0.42141 0.15716,0.58028 1.16493,0.83404 1.68919,0.42534 2.85619,1.63839 3.41047,3.54505 0.41412,1.42451 1.05532,1.99692 1.3131,1.1722 z M 55.637066,159.59179 c 0.186212,-0.53417 0.454256,-0.79375 0.819632,-0.79375 0.771065,0 0.73374,-0.99393 -0.04154,-1.10608 -0.369237,-0.0534 -0.641567,-0.32813 -0.739532,-0.746 -0.09859,-0.42054 -0.339119,-0.66146 -0.660376,-0.66146 -0.321357,0 -0.56162,0.24079 -0.659992,0.66146 -0.110628,0.47306 -0.358939,0.6853 -0.871826,0.74517 -0.982308,0.11468 -1.024776,1.10691 -0.04738,1.10691 0.368371,0 0.725559,0.17859 0.79375,0.39687 0.06819,0.21829 0.179784,0.57547 0.247978,0.79375 0.20855,0.66756 0.866775,0.44222 1.159282,-0.39687 z M 44.308937,109.86752 c -0.173485,-0.32416 -0.273892,-3.82877 -0.273892,-9.5599 v -9.04814 l 0.94488,-0.891135 c 0.519684,-0.490127 1.03999,-0.891138 1.156235,-0.891138 0.206121,0 6.195345,-3.266244 13.112426,-7.150906 1.891771,-1.062429 4.68974,-2.612162 6.217708,-3.443854 1.527969,-0.831694 3.790156,-2.079945 5.027084,-2.773891 1.236927,-0.693949 4.987395,-2.772061 8.334374,-4.61803 3.346979,-1.845968 10.966979,-6.074981 16.933333,-9.397809 5.966355,-3.322825 11.288655,-6.259716 11.827325,-6.526421 1.776,-0.879327 2.28364,-0.717449 8.01643,2.556314 1.60072,0.914112 5.23213,2.96486 8.06979,4.557218 2.83765,1.592355 6.11187,3.440096 7.27604,4.10609 1.16416,0.665993 6.28385,3.526863 11.37708,6.357492 5.09323,2.830629 12.41557,6.931829 16.27188,9.113779 3.8563,2.181947 8.62608,4.873212 10.59952,5.980583 1.97343,1.107371 3.80071,2.248384 4.06062,2.535579 0.42797,0.4729 0.48633,1.379683 0.61845,9.608959 0.13419,8.35793 0.10939,9.12329 -0.30921,9.54188 -0.41375,0.41375 -1.33048,0.4551 -10.08845,0.4551 h -9.63335 l -0.13447,-0.59531 c -0.074,-0.32742 -0.73336,-3.39328 -1.46534,-6.81302 -2.40415,-11.231946 -2.71011,-12.452392 -3.18551,-12.706816 -0.50533,-0.270446 -4.3916,0.685181 -6.321,1.554324 l -1.17436,0.529019 -1.0746,-0.545383 c -1.65379,-0.839335 -9.77197,-5.264258 -10.07043,-5.489022 -0.14552,-0.10959 -0.91943,-0.556495 -1.71979,-0.993127 -0.80036,-0.436628 -4.31271,-2.39876 -7.80521,-4.360291 -9.17012,-5.150315 -11.36752,-6.299122 -12.04871,-6.299122 -0.60895,0 -1.92455,0.66975 -7.79504,3.968323 -1.746252,0.981202 -5.318124,2.973425 -7.937499,4.427159 -2.619374,1.453737 -5.218387,2.901148 -5.775581,3.216468 -0.557194,0.315323 -3.192142,1.767528 -5.855438,3.227128 l -4.842359,2.653816 -2.478934,-0.799272 C 70.461948,90.16087 69.149837,89.911759 68.7464,90.325808 c -0.183293,0.188114 -1.24569,4.628274 -2.360882,9.867022 -1.115192,5.23875 -2.072151,9.67383 -2.126578,9.85573 -0.07685,0.25684 -2.285836,0.33073 -9.887532,0.33073 -9.406892,0 -9.799258,-0.0199 -10.062471,-0.51177 z m 12.161525,-4.76267 c 0,-2.14151 1.698757,-4.00679 4.101041,-4.50305 0.533138,-0.11014 0.81996,-0.3444 0.87358,-0.713492 0.06562,-0.45168 -0.09924,-0.57889 -0.926042,-0.71455 -2.076616,-0.34072 -3.614745,-1.87846 -3.955359,-3.954368 -0.219421,-1.337275 -0.91636,-1.228653 -1.210847,0.188715 -0.118078,0.568323 -0.455189,1.422443 -0.749133,1.898063 -0.58719,0.95009 -2.39549,1.96062 -3.508441,1.96062 -0.454914,0 -0.710216,0.14267 -0.710216,0.39688 0,0.21828 -0.0058,0.479092 -0.01281,0.579582 -0.007,0.10048 0.534239,0.3216 1.202838,0.49136 0.668602,0.16977 1.582344,0.6531 2.03054,1.07407 0.905041,0.85007 1.791763,2.56245 1.800696,3.47738 0.0041,0.41699 0.164322,0.59532 0.534977,0.59532 0.408966,0 0.529166,-0.17639 0.529166,-0.77653 z M 163.42422,104.5808 c 0.2829,-0.72018 0.59127,-1.06297 1.0116,-1.12448 0.93065,-0.1362 0.93638,-0.73628 0.0104,-1.08581 -0.45144,-0.1704 -0.89608,-0.55149 -0.98809,-0.84687 -0.092,-0.29538 -0.29608,-0.61954 -0.45349,-0.72036 -0.3757,-0.24063 -0.9654,0.26175 -0.9654,0.82244 0,0.26747 -0.33274,0.54204 -0.84251,0.69521 -1.141,0.34284 -1.19235,0.73879 -0.15504,1.19529 0.59774,0.26305 0.94353,0.64664 1.11842,1.24068 0.33715,1.14522 0.76873,1.0851 1.26415,-0.1761 z M 141.40701,84.579678 c 1.85896,-0.961311 1.78856,-3.442851 -0.12032,-4.240427 -1.10757,-0.462777 -2.19753,-0.18288 -2.88772,0.74155 -0.96408,1.291283 -0.47699,3.036327 1.01836,3.648364 0.78135,0.319799 1.13331,0.293356 1.98968,-0.149487 z m -7.83415,-6.876428 c 0.10968,-0.437018 0.35044,-0.661459 0.70954,-0.661459 0.75367,0 0.55288,-0.899525 -0.22558,-1.010589 -0.43346,-0.06184 -0.59261,-0.262461 -0.59261,-0.747006 0,-0.843584 -0.88626,-0.764156 -1.00846,0.09038 -0.0512,0.357933 -0.30185,0.607573 -0.66146,0.658757 -0.76061,0.108259 -0.74801,0.852167 0.0163,0.960712 0.36039,0.05118 0.59531,0.268706 0.59531,0.551215 0,1.011121 0.92155,1.13588 1.16698,0.157988 z m -9.89823,-4.630208 c 1.04844,-1.048441 0.32961,-2.645834 -1.19063,-2.645834 -1.55117,0 -2.33712,1.918851 -1.13175,2.763123 0.80207,0.561795 1.68804,0.517049 2.32238,-0.117289 z"
       id="path211"
       sodipodi:nodetypes="sssssssssscsssssssssssssssscsssssssssssssssssssscccsssssssscsssssssssssssssssscssssssssscssscssscssssscssscssssccssssssssscccsssssssscccssscssssssscsssssssssssssscssssssssssssssssssccssscssssssssscsssssssssssssssssscssscssssssssccsssssssssssssssssss"
       inkscape:export-filename="openverse24.png"
       inkscape:export-xdpi="139.81"
       inkscape:export-ydpi="139.81" /><path
       style="fill:#ffffff;stroke:#000000;stroke-width:1.33685"
       d="m 406.34955,830.99698 c -2.24632,-0.97832 -35.88187,-19.80218 -74.74566,-41.8308 -38.8638,-22.02863 -103.09572,-58.21058 -142.73762,-80.40435 -81.68622,-45.73255 -86.06944,-48.4266 -87.97172,-54.06991 -2.168804,-6.43399 -1.936399,-333.88416 0.24063,-339.0361 0.93321,-2.20844 4.2367,-5.59773 7.34109,-7.53173 3.10439,-1.93401 51.5929,-29.32661 107.75225,-60.87246 56.15936,-31.54583 118.32506,-66.51189 138.14601,-77.70234 57.61074,-32.5257 55.76007,-31.93787 73.11054,-23.22213 5.30397,2.66436 64.00103,35.59572 130.43791,73.1808 66.43688,37.58507 129.03535,72.97638 139.10771,78.64735 11.7002,6.58747 19.77357,12.0823 22.35697,15.21641 l 4.04358,4.90558 v 166.90214 166.90214 l -3.96881,4.81484 c -2.27896,2.76478 -9.80904,8.10022 -17.68536,12.53095 -7.54411,4.24386 -72.57876,41.34999 -144.52146,82.45807 -123.65398,70.65592 -142.29158,81.02338 -145.48709,80.92952 -0.73411,-0.0216 -3.17265,-0.83965 -5.41897,-1.81798 z m 14.4458,-71.03815 c 3.81479,-1.9331 20.46244,-11.15765 36.99478,-20.49901 16.53234,-9.34137 66.99783,-37.5501 112.14555,-62.68608 45.14771,-25.13599 83.28802,-46.85963 84.75624,-48.27475 2.42698,-2.33922 2.71123,-4.66144 3.12895,-25.56285 0.25269,-12.64443 0.0519,-28.47336 -0.44619,-35.1754 l -0.90565,-12.18551 -36.70504,-0.9831 c -24.14948,-0.64682 -37.16431,-0.52383 -38.04766,0.35951 -1.48006,1.48006 -5.03866,15.91249 -12.41592,50.35475 -2.67309,12.47986 -5.67361,23.51785 -6.66782,24.52886 -1.5314,1.55729 -5.33005,0.24182 -24.85699,-8.60792 -12.67715,-5.74538 -24.19497,-10.35985 -25.59519,-10.25436 -2.38763,0.17984 -61.85657,30.77239 -88.3992,45.47509 l -12.01269,6.65416 -0.38496,12.23503 -0.38496,12.23502 -17.63408,-9.25345 c -9.69876,-5.08939 -38.02217,-19.65446 -62.94093,-32.36682 l -45.30685,-23.11338 -8.08291,3.08949 c -11.57349,4.42369 -16.30845,4.93549 -17.26257,1.86593 -0.42166,-1.35657 -3.78956,-16.28109 -7.48421,-33.1656 -3.69467,-16.88451 -7.19063,-32.80133 -7.7688,-35.37071 l -1.05123,-4.67161 -37.97833,0.44646 c -20.88808,0.24557 -38.27864,0.74534 -38.64569,1.11061 -0.36706,0.3653 -0.86764,16.39324 -1.11242,35.61767 -0.41419,32.53101 -0.27543,35.10531 2.00212,37.14355 2.15439,1.92804 54.93212,31.41611 199.91663,111.69781 22.71742,12.57923 42.40818,22.87134 43.75723,22.87134 1.34905,0 5.574,-1.58164 9.38879,-3.51473 z M 242.5642,416.10643 c 0.71631,-0.91763 4.39427,-15.78334 8.17321,-33.03491 9.26177,-42.2816 8.98006,-41.37706 12.88642,-41.37706 1.77279,0 7.90107,1.49392 13.61838,3.31981 5.71732,1.82591 11.21416,3.32749 12.21519,3.33686 1.00104,0.009 27.33881,-14.1727 58.52839,-31.5157 31.18956,-17.34301 58.30932,-32.13708 60.26612,-32.87568 4.42857,-1.6716 9.18923,0.64848 60.9106,29.68448 20.55506,11.53945 43.67949,24.3276 51.38764,28.4181 l 14.01481,7.43728 11.34533,-3.87414 c 14.13551,-4.82695 17.03787,-4.93016 18.66,-0.66361 1.12058,2.94734 16.04334,69.97509 16.04334,72.06097 0,0.47904 16.84032,0.69405 37.42294,0.47783 31.46097,-0.33053 37.64057,-0.71213 38.78901,-2.39528 1.49,-2.18375 0.85534,-67.13897 -0.69215,-70.83839 -1.15122,-2.75208 -7.55019,-6.52136 -80.1914,-47.23631 -33.76903,-18.92732 -80.31822,-45.06759 -103.44266,-58.08948 -51.10184,-28.7766 -54.90014,-30.72114 -60.0083,-30.72114 -2.71268,0 -16.41574,6.84555 -41.75512,20.85936 -20.74454,11.47264 -71.05256,39.32487 -111.79562,61.89383 -40.74306,22.56896 -77.08146,42.5539 -80.75201,44.41098 -3.67054,1.85707 -8.08489,4.88969 -9.80966,6.73913 l -3.13594,3.36265 0.46645,34.85896 c 0.39047,29.18012 0.79262,35.06505 2.46857,36.12399 3.20102,2.02256 72.78937,1.68341 74.38646,-0.36253 z"
       id="path509"
       transform="scale(0.26458333)" /><text
       xml:space="preserve"
       style="font-style:normal;font-weight:normal;font-size:19.7556px;line-height:1.25;font-family:sans-serif;letter-spacing:0px;word-spacing:0px;fill:#000000;fill-opacity:1;stroke:none;stroke-width:0.264583"
       x="42.730152"
       y="134.71194"
       id="text363"><tspan
         sodipodi:role="line"
         id="tspan361"
         style="font-style:normal;font-variant:normal;font-weight:bold;font-stretch:normal;font-size:19.7556px;font-family:'TeX Gyre Adventor';-inkscape-font-specification:'TeX Gyre Adventor Bold';stroke-width:0.264583"
         x="42.730152"
         y="134.71194">OpenVerse'24</tspan></text></g></svg>
